HIERARCHY
ROOT Hips
{
  OFFSET 5.72205e-005 65.662 3.42586
  CHANNELS 6 Xposition Yposition Zposition Zrotation Xrotation Yrotation
  JOINT Chest
  {
    OFFSET 0 8.7983 -4.7612
    CHANNELS 3 Zrotation Xrotation Yrotation
    JOINT Chest2
    {
      OFFSET 0 8.0291 0.4195
      CHANNELS 3 Zrotation Xrotation Yrotation
      JOINT Chest3
      {
        OFFSET 0 9.9351 -2.2114
        CHANNELS 3 Zrotation Xrotation Yrotation
        JOINT Neck
        {
          OFFSET 0 22.3885 -0.4656
          CHANNELS 3 Zrotation Xrotation Yrotation
          JOINT Head
          {
            OFFSET -0.0001 12.643 3.4389
            CHANNELS 3 Zrotation Xrotation Yrotation
            End Site
            {
              OFFSET 0.0001 17.6655 0.5274
            }
          }
        }
        JOINT LeftCollar
        {
          OFFSET 2.2603 21.606 7.4023
          CHANNELS 3 Zrotation Xrotation Yrotation
          JOINT LeftShoulder
          {
            OFFSET 13.5163 -1.1332 -5.0146
            CHANNELS 3 Zrotation Xrotation Yrotation
            JOINT LeftElbow
            {
              OFFSET -0.0995 -28.05 -0.2431
              CHANNELS 3 Zrotation Xrotation Yrotation
              JOINT LeftWrist
              {
                OFFSET 0.0679 -23.3996 -0.1402
                CHANNELS 3 Zrotation Xrotation Yrotation
                JOINT LeftFinger1
                {
                  OFFSET 0.7932 -9.069 2.5189
                  CHANNELS 3 Zrotation Xrotation Yrotation
                  JOINT LeftFinger11
                  {
                    OFFSET -0.8272 -3.3923 0.5977
                    CHANNELS 3 Zrotation Xrotation Yrotation
                    JOINT LeftFinger12
                    {
                      OFFSET -0.5649 -2.3158 0.4082
                      CHANNELS 3 Zrotation Xrotation Yrotation
                      End Site
                      {
                        OFFSET -0.4919 -1.6479 0.2673
                      }
                    }
                  }
                }
                JOINT LeftFinger2
                {
                  OFFSET 0.9159 -9.2044 0.2193
                  CHANNELS 3 Zrotation Xrotation Yrotation
                  JOINT LeftFinger21
                  {
                    OFFSET 0.0117 -4.1944 -0.0248
                    CHANNELS 3 Zrotation Xrotation Yrotation
                    JOINT LeftFinger22
                    {
                      OFFSET 0.0071 -2.3249 -0.0142
                      CHANNELS 3 Zrotation Xrotation Yrotation
                      End Site
                      {
                        OFFSET -0.1475 -2.0882 0.0028
                      }
                    }
                  }
                }
                JOINT LeftFinger3
                {
                  OFFSET 0.6113 -8.7231 -2.0637
                  CHANNELS 3 Zrotation Xrotation Yrotation
                  JOINT LeftFinger31
                  {
                    OFFSET -0.1927 -3.8059 -0.2383
                    CHANNELS 3 Zrotation Xrotation Yrotation
                    JOINT LeftFinger32
                    {
                      OFFSET -0.1091 -2.1688 -0.1362
                      CHANNELS 3 Zrotation Xrotation Yrotation
                      End Site
                      {
                        OFFSET -0.2358 -1.9176 -0.0906
                      }
                    }
                  }
                }
                JOINT LeftFinger4
                {
                  OFFSET -0.6151 -8.0947 -3.5641
                  CHANNELS 3 Zrotation Xrotation Yrotation
                  JOINT LeftFinger41
                  {
                    OFFSET -0.4882 -2.341 -0.6462
                    CHANNELS 3 Zrotation Xrotation Yrotation
                    JOINT LeftFinger42
                    {
                      OFFSET -0.3575 -1.7167 -0.4742
                      CHANNELS 3 Zrotation Xrotation Yrotation
                      End Site
                      {
                        OFFSET -0.4187 -1.5237 -0.3496
                      }
                    }
                  }
                }
                JOINT LeftFinger0
                {
                  OFFSET -1.42 -1.8761 1.4223
                  CHANNELS 3 Zrotation Xrotation Yrotation
                  JOINT LeftFinger01
                  {
                    OFFSET -1.1471 -3.4929 2.6334
                    CHANNELS 3 Zrotation Xrotation Yrotation
                    JOINT LeftFinger02
                    {
                      OFFSET -0.823 -2.3 1.6571
                      CHANNELS 3 Zrotation Xrotation Yrotation
                      End Site
                      {
                        OFFSET -0.5822 -1.6914 1.1582
                      }
                    }
                  }
                }
              }
            }
          }
        }
        JOINT RightCollar
        {
          OFFSET -2.2603 21.606 7.4023
          CHANNELS 3 Zrotation Xrotation Yrotation
          JOINT RightShoulder
          {
            OFFSET -13.5187 -1.1334 -5.0155
            CHANNELS 3 Zrotation Xrotation Yrotation
            JOINT RightElbow
            {
              OFFSET 0.0994 -28.0499 -0.2431
              CHANNELS 3 Zrotation Xrotation Yrotation
              JOINT RightWrist
              {
                OFFSET -0.0679 -23.3996 -0.1402
                CHANNELS 3 Zrotation Xrotation Yrotation
                JOINT RightFinger1
                {
                  OFFSET -0.7932 -9.0691 2.5189
                  CHANNELS 3 Zrotation Xrotation Yrotation
                  JOINT RightFinger11
                  {
                    OFFSET 0.8272 -3.3923 0.5977
                    CHANNELS 3 Zrotation Xrotation Yrotation
                    JOINT RightFinger12
                    {
                      OFFSET 0.565 -2.3158 0.4082
                      CHANNELS 3 Zrotation Xrotation Yrotation
                      End Site
                      {
                        OFFSET 0.4919 -1.6479 0.2673
                      }
                    }
                  }
                }
                JOINT RightFinger2
                {
                  OFFSET -0.916 -9.2044 0.2193
                  CHANNELS 3 Zrotation Xrotation Yrotation
                  JOINT RightFinger21
                  {
                    OFFSET -0.0117 -4.1944 -0.0248
                    CHANNELS 3 Zrotation Xrotation Yrotation
                    JOINT RightFinger22
                    {
                      OFFSET -0.0071 -2.3249 -0.0142
                      CHANNELS 3 Zrotation Xrotation Yrotation
                      End Site
                      {
                        OFFSET 0.1475 -2.0882 0.0028
                      }
                    }
                  }
                }
                JOINT RightFinger3
                {
                  OFFSET -0.6113 -8.7231 -2.0637
                  CHANNELS 3 Zrotation Xrotation Yrotation
                  JOINT RightFinger31
                  {
                    OFFSET 0.1927 -3.8059 -0.2383
                    CHANNELS 3 Zrotation Xrotation Yrotation
                    JOINT RightFinger32
                    {
                      OFFSET 0.1091 -2.1688 -0.1362
                      CHANNELS 3 Zrotation Xrotation Yrotation
                      End Site
                      {
                        OFFSET 0.2358 -1.9176 -0.0906
                      }
                    }
                  }
                }
                JOINT RightFinger4
                {
                  OFFSET 0.6151 -8.0947 -3.564
                  CHANNELS 3 Zrotation Xrotation Yrotation
                  JOINT RightFinger41
                  {
                    OFFSET 0.4882 -2.341 -0.6462
                    CHANNELS 3 Zrotation Xrotation Yrotation
                    JOINT RightFinger42
                    {
                      OFFSET 0.3574 -1.7166 -0.4742
                      CHANNELS 3 Zrotation Xrotation Yrotation
                      End Site
                      {
                        OFFSET 0.4187 -1.5237 -0.3496
                      }
                    }
                  }
                }
                JOINT RightFinger0
                {
                  OFFSET 1.4199 -1.8761 1.4221
                  CHANNELS 3 Zrotation Xrotation Yrotation
                  JOINT RightFinger01
                  {
                    OFFSET 1.1472 -3.4929 2.6336
                    CHANNELS 3 Zrotation Xrotation Yrotation
                    JOINT RightFinger02
                    {
                      OFFSET 0.8229 -2.3 1.6571
                      CHANNELS 3 Zrotation Xrotation Yrotation
                      End Site
                      {
                        OFFSET 0.5822 -1.6914 1.1582
                      }
                    }
                  }
                }
              }
            }
          }
        }
      }
    }
  }
  JOINT RightHip
  {
    OFFSET -9.412 3.9771 -0.7758
    CHANNELS 3 Zrotation Xrotation Yrotation
    JOINT RightKnee
    {
      OFFSET -0.7531 -40.938 0
      CHANNELS 3 Zrotation Xrotation Yrotation
      JOINT RightAnkle
      {
        OFFSET 0 -40.1986 0
        CHANNELS 3 Zrotation Xrotation Yrotation
        JOINT RightToe
        {
          OFFSET 0 -4.4182 9.239
          CHANNELS 3 Zrotation Xrotation Yrotation
          End Site
          {
            OFFSET 0 0 6.1981
          }
        }
      }
    }
  }
  JOINT LeftHip
  {
    OFFSET 9.4119 3.9773 -0.7758
    CHANNELS 3 Zrotation Xrotation Yrotation
    JOINT LeftKnee
    {
      OFFSET 0.7532 -40.9383 0
      CHANNELS 3 Zrotation Xrotation Yrotation
      JOINT LeftAnkle
      {
        OFFSET 0 -40.1986 0
        CHANNELS 3 Zrotation Xrotation Yrotation
        JOINT LeftToe
        {
          OFFSET 0 -4.4182 9.239
          CHANNELS 3 Zrotation Xrotation Yrotation
          End Site
          {
            OFFSET 0 0 6.1981
          }
        }
      }
    }
  }
}
MOTION
Frames:	6
Frame Time:	0.0333333
5.72205e-005 65.662 3.42586 0 0 -0 0 0 -0 0 0 -0 0 0 -0 0 0 -0 0 0 -0 0 0 -12.5014 88.1196 14.2451 10.6914 -0.00160068 -0.00239207 0.000740045 -8.4365e-005 7.00714e-005 -9.52055e-007 9.93923e-017 -1.98785e-016 -1.59028e-015 9.93923e-017 -5.96354e-016 -1.59028e-015 -9.93923e-017 -5.96354e-016 -1.59028e-015 9.93923e-017 -1.98785e-016 -1.59028e-015 -0.0128176 0.00232552 8.52707e-005 9.93923e-017 5.96354e-016 -0 9.93923e-017 -1.98785e-016 -1.59028e-015 -0.0160551 0.00299681 0.000857156 -2.48481e-016 0 3.18055e-015 9.93923e-017 -1.98785e-016 -1.59028e-015 -0.0125865 0.0031206 0.00282719 0 1.98785e-016 -0 9.93923e-017 -1.98785e-016 -1.59028e-015 9.93923e-017 -5.96354e-016 -1.59028e-015 -9.93923e-017 -5.96354e-016 -1.59028e-015 -0.865644 0.16582 7.03859 -88.0329 10.2057 -10.5567 0.0015593 -0.00248883 -0.000788628 7.87605e-005 4.10553e-005 1.24965e-005 -3.97569e-016 -7.95139e-016 3.18055e-015 -1.98785e-016 -3.97569e-016 3.18055e-015 -1.98785e-016 0 3.18055e-015 -3.97569e-016 -7.95139e-016 3.18055e-015 0.0129473 0.00231697 -8.70038e-005 9.93923e-017 -7.95139e-016 1.59028e-015 -3.97569e-016 -7.95139e-016 3.18055e-015 0.0163314 0.00303369 -0.000872333 3.97569e-016 7.95139e-016 -3.18055e-015 -3.97569e-016 -7.95139e-016 3.18055e-015 0.0145763 0.00367772 -0.00326275 9.93923e-017 -3.97569e-016 -0 -3.97569e-016 -7.95139e-016 3.18055e-015 -1.98785e-016 -3.97569e-016 3.18055e-015 -1.98785e-016 0 3.18055e-015 3.42482 1.32465 -0.0626183 0.000117508 0.717283 0.000978199 -3.4257 -2.04197 -0.0604716 6.47761e-025 0 -0 -3.42483 1.34017 0.0627307 -0.000193936 0.682302 -0.0013703 3.42574 -2.02253 0.0595886 -8.45714e-024 0 -7.40531e-025 
38.2674 42.8826 18.6236 -179.999 58.9984 12.9916 -0.311062 6.23914 -2.86024 -0.309132 12.486 -5.73773 -0.309126 12.4861 -5.73775 -2.54583e-006 13.997 1.42686e-005 0.000819732 -0.159115 0.589274 -8.94838 5.88097 -4.79867 39.2574 12.0908 -35.0603 -1.46486 -17.8277 -36.4584 2.12028 3.46034 0.081797 -7.95139e-016 -3.18055e-015 2.5842e-015 -1.72393e-006 3.16376e-006 -1.08956e-006 -1.59028e-015 0 2.18663e-015 -7.95139e-016 -3.18055e-015 2.5842e-015 -0.0128159 0.00232765 9.01627e-005 -7.95139e-016 6.36111e-015 -2.5842e-015 -7.95139e-016 -3.18055e-015 2.5842e-015 -0.0160512 0.0029939 0.000860728 7.95139e-016 3.18055e-015 4.57205e-015 -7.95139e-016 -3.18055e-015 2.5842e-015 -0.0126119 0.00312607 0.00282611 -7.95139e-016 3.18055e-015 1.39149e-015 -7.95139e-016 -3.18055e-015 2.5842e-015 -1.72393e-006 3.16376e-006 -1.08956e-006 -1.59028e-015 0 2.18663e-015 18.4904 -0.411534 8.23403 -54.0067 10.2106 40.7493 -145.771 -28.4814 -171.24 46.6172 8.91883 -10.6236 1.46603e-022 2.64096e-006 -3.18055e-015 7.95139e-016 -2.64096e-006 -0 2.38542e-015 2.64096e-006 -6.36111e-015 1.46603e-022 2.64096e-006 -3.18055e-015 0.0130195 0.00233079 -8.98495e-005 3.03978e-007 8.56171e-007 1.61959e-006 1.46603e-022 2.64096e-006 -3.18055e-015 0.0163567 0.00303561 -0.000875223 3.97569e-016 1.61141e-006 1.59028e-015 1.46603e-022 2.64096e-006 -3.18055e-015 0.0146389 0.00369326 -0.00327301 -1.22685e-006 1.35447e-006 -5.84353e-007 1.46603e-022 2.64096e-006 -3.18055e-015 7.95139e-016 -2.64096e-006 -0 2.38542e-015 2.64096e-006 -6.36111e-015 45.4155 -71.8267 27.5039 -2.05742 36.855 42.3258 -26.4201 -2.43356 -8.40622 2.5275e-006 -1.08913e-006 -8.95112e-008 37.8085 -77.6125 68.355 2.04717 37.7926 -42.3211 24.8654 -2.91797 7.61311 3.21509e-006 6.53944e-007 -6.33144e-007 
38.2653 42.8814 18.6432 -179.999 58.9984 12.9916 -0.281725 6.42585 -2.8629 -0.239992 12.8578 -5.74864 -0.239991 12.8578 -5.74865 -0.407771 13.9966 0.0986374 -0.0581179 -0.305473 1.16397 -8.37939 5.39283 -5.51214 38.9585 12.0726 -35.0196 -1.46543 -17.8275 -36.4583 2.27105 3.48109 0.751599 7.95139e-016 -2.22639e-014 -4.77083e-015 -9.2692e-031 -1.90833e-014 -2.78299e-015 -7.95139e-016 -1.59028e-014 -2.78299e-015 7.95139e-016 -2.22639e-014 -4.77083e-015 -0.0128408 0.00232381 7.59967e-005 7.95139e-016 -3.18055e-015 1.59028e-015 7.95139e-016 -2.22639e-014 -4.77083e-015 -0.016033 0.00299242 0.000851967 2.38542e-015 -3.18055e-015 3.77691e-015 7.95139e-016 -2.22639e-014 -4.77083e-015 -0.0126022 0.00311915 0.00282052 -7.95139e-016 0 3.97569e-016 7.95139e-016 -2.22639e-014 -4.77083e-015 -9.2692e-031 -1.90833e-014 -2.78299e-015 -7.95139e-016 -1.59028e-014 -2.78299e-015 18.4904 -0.411543 8.23403 -54.0068 10.2106 40.7493 -145.703 -28.8829 -170.916 46.6172 8.91883 -10.6236 -1.42352e-007 -8.49512e-007 -8.15426e-007 4.37326e-015 1.59028e-015 3.18055e-015 1.42352e-007 8.49512e-007 8.15426e-007 -1.42352e-007 -8.49512e-007 -8.15426e-007 0.0129783 0.00232074 -8.51448e-005 -2.32383e-006 2.56267e-006 -5.07269e-007 -1.42352e-007 -8.49512e-007 -8.15426e-007 0.0163458 0.00304223 -0.000876776 5.68996e-007 -9.31627e-007 3.26175e-006 -1.42352e-007 -8.49512e-007 -8.15426e-007 0.0145038 0.00365898 -0.00324339 1.42247e-007 8.55691e-007 8.15447e-007 -1.42352e-007 -8.49512e-007 -8.15426e-007 4.37326e-015 1.59028e-015 3.18055e-015 1.42352e-007 8.49512e-007 8.15426e-007 46.404 -72.139 28.5424 -2.05755 36.8697 42.3253 -26.4272 -2.44003 -8.40876 -2.04527e-006 1.10781e-006 -4.63495e-006 39.2677 -78.0071 69.8475 2.04737 37.7952 -42.3211 24.8652 -2.91491 7.61247 -2.91987e-006 -1.0429e-006 -3.35008e-007 
38.2632 42.88 18.6629 -179.999 58.9984 12.9916 -0.25225 6.6137 -2.86491 -0.170517 13.2317 -5.7585 -0.170515 13.2317 -5.75852 -0.815904 13.9956 0.197359 -0.115698 -0.452719 1.73971 -7.81631 4.89709 -6.22101 38.6587 12.0551 -34.9789 -1.46474 -17.8277 -36.4584 2.42165 3.50368 1.42177 1.01086e-007 8.5828e-006 5.97986e-007 -1.59028e-015 -3.18055e-015 1.39149e-015 1.89816e-006 -2.20858e-006 -7.60531e-006 1.01086e-007 8.5828e-006 5.97986e-007 -0.0128036 0.00232933 7.63003e-005 -1.26941e-005 7.49533e-006 7.75688e-006 1.01086e-007 8.5828e-006 5.97986e-007 -0.0160514 0.00299623 0.00085016 2.00226e-007 8.75036e-006 1.19608e-006 1.01086e-007 8.5828e-006 5.97986e-007 -0.0125706 0.00312716 0.00281696 5.24818e-006 -4.35146e-006 -5.98963e-006 1.01086e-007 8.5828e-006 5.97986e-007 -1.59028e-015 -3.18055e-015 1.39149e-015 1.89816e-006 -2.20858e-006 -7.60531e-006 18.4904 -0.411555 8.23404 -54.0067 10.2106 40.7493 -145.632 -29.2841 -170.59 46.6172 8.91888 -10.6236 2.07927e-006 -9.96449e-007 -9.84573e-007 7.30157e-006 9.41586e-007 -2.25599e-006 1.32424e-007 8.50037e-007 8.20715e-007 2.07927e-006 -9.96449e-007 -9.84573e-007 0.0129591 0.00231746 -8.86489e-005 -1.6808e-006 1.86791e-006 3.44664e-006 2.07927e-006 -9.96449e-007 -9.84573e-007 0.0163378 0.00303145 -0.000877964 -2.64651e-007 3.54767e-006 -1.64145e-006 2.07927e-006 -9.96449e-007 -9.84573e-007 0.0146002 0.00367956 -0.00326665 2.64644e-007 8.65761e-007 1.64147e-006 2.07927e-006 -9.96449e-007 -9.84573e-007 7.30157e-006 9.41586e-007 -2.25599e-006 1.32424e-007 8.50037e-007 8.20715e-007 47.4341 -72.4462 29.6222 -2.05906 36.8855 42.3249 -26.4343 -2.44647 -8.41135 -1.78906e-015 -7.95139e-016 -0 40.8268 -78.3935 71.44 2.04758 37.7978 -42.3213 24.8649 -2.91172 7.61179 -1.63545e-006 -3.31427e-007 7.18294e-007 
38.2612 42.8785 18.6825 -179.999 58.9984 12.9916 -0.22269 6.80246 -2.86622 -0.100757 13.6075 -5.76733 -0.100756 13.6076 -5.76734 -1.22438 13.9939 0.296128 -0.171911 -0.600815 2.31647 -7.25923 4.39399 -6.92522 38.3593 12.037 -34.9383 -1.46458 -17.8277 -36.4584 2.57208 3.52799 2.09223 -7.95139e-016 -3.18055e-015 -0 -7.95139e-016 0 -1.98785e-016 1.98626e-031 6.36111e-015 -1.78906e-015 -7.95139e-016 -3.18055e-015 -0 -0.0128178 0.0023294 7.82642e-005 5.51738e-032 3.18055e-015 -9.93923e-016 -7.95139e-016 -3.18055e-015 -0 -0.0160349 0.00298402 0.0008574 1.19604e-005 3.16797e-006 -2.71116e-006 -7.95139e-016 -3.18055e-015 -0 -0.0126001 0.00312309 0.00282889 0 9.54166e-015 -0 -7.95139e-016 -3.18055e-015 -0 -7.95139e-016 0 -1.98785e-016 1.98626e-031 6.36111e-015 -1.78906e-015 18.4904 -0.411522 8.23401 -54.0067 10.2106 40.7493 -145.558 -29.6851 -170.261 46.6172 8.91888 -10.6236 -2.38542e-015 4.77083e-015 4.77083e-015 -1.98785e-015 4.77083e-015 6.36111e-015 -5.1684e-015 3.18055e-015 3.18055e-015 -2.38542e-015 4.77083e-015 4.77083e-015 0.0129729 0.00231899 -8.83478e-005 -2.78299e-015 -1.59028e-015 -1.59028e-015 -2.38542e-015 4.77083e-015 4.77083e-015 0.016341 0.0030358 -0.000873361 2.5842e-015 0 -1.59028e-015 -2.38542e-015 4.77083e-015 4.77083e-015 0.0145458 0.00366731 -0.00325329 -7.15625e-015 -1.59028e-015 -0 -2.38542e-015 4.77083e-015 4.77083e-015 -1.98785e-015 4.77083e-015 6.36111e-015 -5.1684e-015 3.18055e-015 3.18055e-015 48.4986 -72.7473 30.7365 -2.05984 36.9009 42.3244 -26.4415 -2.45287 -8.41389 1.98785e-016 -1.98785e-016 6.36111e-015 42.485 -78.7699 73.1317 2.04749 37.7984 -42.3213 24.8645 -2.90844 7.61106 -3.57708e-008 1.85686e-009 4.253e-007 
38.2592 42.8769 18.7022 -179.999 58.9984 12.9916 -0.193054 6.99212 -2.86685 -0.0307743 13.9851 -5.7751 -0.030772 13.9851 -5.77511 -1.63319 13.9915 0.394995 -0.226735 -0.749829 2.89422 -6.70825 3.8836 -7.62465 38.0601 12.0185 -34.8979 -1.46472 -17.8276 -36.4583 2.72226 3.55403 2.76294 1.59028e-015 9.54166e-015 -1.19271e-015 -1.98626e-031 9.54166e-015 1.19271e-015 7.95139e-016 6.36111e-015 -0 1.59028e-015 9.54166e-015 -1.19271e-015 -0.0128058 0.00232336 8.33336e-005 -7.95139e-016 3.18055e-015 1.39149e-015 1.59028e-015 9.54166e-015 -1.19271e-015 -0.0160561 0.00299057 0.000854587 1.59028e-015 0 -9.93923e-016 1.59028e-015 9.54166e-015 -1.19271e-015 -0.0126088 0.00313394 0.002836 -1.59028e-015 0 2.38542e-015 1.59028e-015 9.54166e-015 -1.19271e-015 -1.98626e-031 9.54166e-015 1.19271e-015 7.95139e-016 6.36111e-015 -0 18.4904 -0.411528 8.23403 -54.0068 10.2105 40.7493 -145.481 -30.0857 -169.931 46.6172 8.91897 -10.6236 -1.1299e-006 -2.6343e-007 -6.39822e-008 1.35388e-006 -1.4823e-006 1.72438e-006 1.0138e-014 -4.77083e-015 4.77083e-015 -1.1299e-006 -2.6343e-007 -6.39822e-008 0.012975 0.00232071 -8.14514e-005 -4.57205e-015 -1.59028e-015 -0 -1.1299e-006 -2.6343e-007 -6.39822e-008 0.0163138 0.00303222 -0.000867361 1.05356e-014 -1.59028e-015 -3.18055e-015 -1.1299e-006 -2.6343e-007 -6.39822e-008 0.0146712 0.00370357 -0.00328238 3.16333e-006 -8.29788e-008 -1.4677e-006 -1.1299e-006 -2.6343e-007 -6.39822e-008 1.35388e-006 -1.4823e-006 1.72438e-006 1.0138e-014 -4.77083e-015 4.77083e-015 49.5981 -73.0419 31.8858 -2.05994 36.9155 42.3239 -26.4486 -2.45927 -8.41642 2.68359e-015 1.78906e-015 6.36111e-015 44.2578 -79.1362 74.9379 2.04742 37.799 -42.3213 24.864 -2.90511 7.61034 -6.24715e-006 -6.10559e-007 -1.97583e-007 
